<svg width="4627" height="5061" viewBox="0 0 4627 5061" fill="none" xmlns="http://www.w3.org/2000/svg">
<path d="M0 150C0 67.1573 67.1573 0 150 0H1138C1138 0 1419.88 822.64 1600.5 1349.75C1781.12 1876.86 2063 2699.5 2063 2699.5L2849.5 5061H150C67.1572 5061 0 4993.84 0 4911V150Z" fill="black"/>
<path d="M4412.14 0H3520.19C3482.42 0 3448.87 24.091 3436.8 59.871L2540.65 2716.34C2535.04 2733 2534.99 2751.02 2540.51 2767.7L3053 4315L4553.06 201.389C4588.74 103.539 4516.29 0 4412.14 0Z" fill="black"/>
</svg>
