<svg width="22306" height="7230" viewBox="0 0 22306 7230" fill="none" xmlns="http://www.w3.org/2000/svg">
<path d="M0 1234C0 1151.16 67.1573 1084 150 1084H1138C1138 1084 1419.88 1906.64 1600.5 2433.75C1781.12 2960.86 2063 3783.5 2063 3783.5L2849.5 6145H150C67.1572 6145 0 6077.84 0 5995V1234Z" fill="white"/>
<path d="M4412.14 1084H3520.19C3482.42 1084 3448.87 1108.09 3436.8 1143.87L2540.65 3800.34C2535.04 3817 2534.99 3835.02 2540.51 3851.7L3053 5399L4553.06 1285.39C4588.74 1187.54 4516.29 1084 4412.14 1084Z" fill="white"/>
<path d="M5103.18 6117V1056H8356.68V1923.6H6057.54V3131.01H8154.24V3998.61H6057.54V5249.4H8400.06V6117H5103.18ZM9106.51 6117V1056H11304.4C11622.6 1056 11899.7 1111.43 12135.9 1222.29C12372.1 1333.15 12555.2 1489.8 12685.4 1692.24C12815.5 1894.68 12880.6 2133.27 12880.6 2408.01V2494.77C12880.6 2798.43 12808.3 3044.25 12663.7 3232.23C12519.1 3420.21 12340.7 3557.58 12128.7 3644.34V3774.48C12321.5 3784.12 12470.9 3851.6 12576.9 3976.92C12683 4097.42 12736 4258.89 12736 4461.33V6117H11781.6V4598.7C11781.6 4483.02 11750.3 4389.03 11687.6 4316.73C11629.8 4244.43 11531 4208.28 11391.2 4208.28H10060.9V6117H9106.51ZM10060.9 3340.68H11203.2C11429.8 3340.68 11605.7 3280.43 11731 3159.93C11861.1 3034.61 11926.2 2870.73 11926.2 2668.29V2595.99C11926.2 2393.55 11863.6 2232.08 11738.2 2111.58C11612.9 1986.26 11434.6 1923.6 11203.2 1923.6H10060.9V3340.68ZM13674.7 6117V1056H14629V3065.94H14759.2L16400.4 1056H17622.3L15511.1 3550.35L17694.6 6117H16436.5L14759.2 4063.68H14629V6117H13674.7ZM17853.5 6117L19183.8 1056H20846.7L22177 6117H21193.7L20919 5003.58H19111.5L18836.7 6117H17853.5ZM19335.6 4121.52H20694.8L20080.3 1656.09H19950.2L19335.6 4121.52Z" fill="white"/>
</svg>
